<svg id="Layer_1" data-name="Layer 1" xmlns="http://www.w3.org/2000/svg" xmlns:xlink="http://www.w3.org/1999/xlink" viewBox="0 0 140 140"><defs><style>.cls-1,.cls-4,.cls-5{fill:none;stroke-linejoin:round;}.cls-1{stroke:#6acc29;stroke-width:5px;}.cls-1,.cls-5{stroke-linecap:round;}.cls-2{fill:url(#linear-gradient);}.cls-3{fill:url(#linear-gradient-2);}.cls-4,.cls-5{stroke:#3c7316;}.cls-4{stroke-width:4px;}.cls-5{stroke-width:2.08px;}.cls-6{fill:#3c7316;}</style><linearGradient id="linear-gradient" x1="139.49" y1="183.62" x2="139.49" y2="131.55" gradientTransform="translate(-98.48 98.79) rotate(-45)" gradientUnits="userSpaceOnUse"><stop offset="0.32" stop-color="#74a653"/><stop offset="1" stop-color="#fff"/></linearGradient><linearGradient id="linear-gradient-2" x1="116.36" y1="159.18" x2="149.61" y2="159.18" gradientTransform="translate(-82 106.09) rotate(-45)" gradientUnits="userSpaceOnUse"><stop offset="0" stop-color="#fff"/><stop offset="0.5" stop-color="#74a653"/><stop offset="1" stop-color="#fff"/></linearGradient></defs><path class="cls-1" d="M5.89,97.32h0L97.32,5.89V28.74L28.74,97.32H51.6L97.32,51.6V74.46L74.46,97.32h13.7"/><path class="cls-2" d="M136,117.66l-5.91-5.91c3.28-15,3.1-39.91,3.8-47.18a5,5,0,0,0-1.45-4l-1.64-1.64s-8.74,5.39-37.63,34.28S58.89,130.8,58.89,130.8l1.65,1.65a5,5,0,0,0,4,1.45c7.28-.7,32.22-.52,47.18-3.81l5.91,5.91a4,4,0,0,0,5.62,0s1.7-1,6.71-6,6-6.71,6-6.71A4,4,0,0,0,136,117.66Z"/><path class="cls-3" d="M130.09,111.75c.3-1.37.59-2.8.87-4.28a70.79,70.79,0,0,1-10.45,13A71,71,0,0,1,107.45,131c1.49-.29,2.93-.58,4.3-.89l5.91,5.91a4,4,0,0,0,5.62,0s1.7-1,6.71-6,6-6.71,6-6.71a4,4,0,0,0,0-5.62Z"/><path class="cls-4" d="M136,117.66l-5.91-5.91c3.28-15,3.1-39.91,3.8-47.18a5,5,0,0,0-1.45-4l-1.64-1.64s-8.74,5.39-37.63,34.28S58.89,130.8,58.89,130.8l1.65,1.65a5,5,0,0,0,4,1.45c7.28-.7,32.22-.52,47.18-3.81l5.91,5.91a4,4,0,0,0,5.62,0s1.7-1,6.71-6,6-6.71,6-6.71A4,4,0,0,0,136,117.66Z"/><path class="cls-5" d="M108.06,130.8a62.57,62.57,0,0,0,12.47-9.88,69.89,69.89,0,0,0,10.25-12.84"/><path class="cls-6" d="M94.82,93.07l25.47,27.24L93.06,94.84A1.25,1.25,0,0,1,94.76,93S94.81,93.05,94.82,93.07Z"/><path class="cls-6" d="M113.71,73.26a36.71,36.71,0,0,1,6.49,10,59.48,59.48,0,0,1,3.73,11.11,68,68,0,0,1,1.69,11.52,45,45,0,0,1,0,5.81,21.26,21.26,0,0,1-.42,2.88,5.85,5.85,0,0,1-1.16,2.63,5.73,5.73,0,0,0,1-2.66,19.48,19.48,0,0,0,.25-2.86,42.51,42.51,0,0,0-.28-5.75,66.3,66.3,0,0,0-2.28-11.26,57.52,57.52,0,0,0-4.21-10.6,34.46,34.46,0,0,0-6.57-9h0a1.25,1.25,0,0,1,1.73-1.81A.12.12,0,0,1,113.71,73.26Z"/><path class="cls-6" d="M75,112a34.91,34.91,0,0,0,9,6.57,57.91,57.91,0,0,0,10.6,4.2A66.1,66.1,0,0,0,105.9,125a44,44,0,0,0,5.74.29,21.26,21.26,0,0,0,2.87-.26,5.66,5.66,0,0,0,2.66-1,5.74,5.74,0,0,1-2.63,1.16,20,20,0,0,1-2.88.42,43.47,43.47,0,0,1-5.82,0,66.15,66.15,0,0,1-11.52-1.69,60,60,0,0,1-11.11-3.73,36.82,36.82,0,0,1-10-6.48A1.26,1.26,0,0,1,75,111.9l0,0Z"/><path class="cls-6" d="M12.41,55.3a.58.58,0,0,1,0,.84L9.1,59.46a.59.59,0,0,1-.42.17.61.61,0,0,1-.43-.17L3,54.2a.58.58,0,0,1-.18-.42A.58.58,0,0,1,3,53.35L3.33,53a.61.61,0,0,1,.85,0l4.54,4.54L11.27,55a.63.63,0,0,1,.85,0Zm4.63-6a3.14,3.14,0,0,1,0,1.72,3.56,3.56,0,0,1-1,1.62,3.6,3.6,0,0,1-1.61,1,3.22,3.22,0,0,1-.81.11,3.14,3.14,0,0,1-.91-.14,4,4,0,0,1-1.52-.89c-.17-.16-.42-.4-.74-.73l-.72-.74a3.83,3.83,0,0,1-.91-1.51,3,3,0,0,1,0-1.72,3.51,3.51,0,0,1,1-1.62,3.62,3.62,0,0,1,1.61-1,3.17,3.17,0,0,1,1.73,0,3.8,3.8,0,0,1,1.51.9l.75.72.71.74A4,4,0,0,1,17,49.29Zm-2.13-.39-.66-.69-.7-.66a2,2,0,0,0-1.32-.63h0A1.76,1.76,0,0,0,11,47.5a1.75,1.75,0,0,0-.59,1.23h0A2,2,0,0,0,11,50.09l.67.68c.29.29.52.52.69.67a2,2,0,0,0,1.35.63A1.76,1.76,0,0,0,15,51.49a1.75,1.75,0,0,0,.59-1.24A2,2,0,0,0,14.91,48.9Zm8.36-4.83A3.81,3.81,0,0,0,22,41.66l-3.25-3.25a.61.61,0,0,0-.85,0l-.32.32a.58.58,0,0,0-.18.42.58.58,0,0,0,.18.43l3.29,3.3a2,2,0,0,1,.72,1.35,1.63,1.63,0,0,1-.57,1.23,1.59,1.59,0,0,1-1.23.57,2.08,2.08,0,0,1-1.35-.72L15.18,42a.63.63,0,0,0-.85,0l-.33.34a.6.6,0,0,0,0,.84l3.26,3.26a3.81,3.81,0,0,0,2.39,1.23h.19a3.32,3.32,0,0,0,2.32-1.13A3.21,3.21,0,0,0,23.27,44.07ZM20.22,37a.6.6,0,0,1,0-.84l1.86-1.87a4.05,4.05,0,0,1,1.58-1,3.1,3.1,0,0,1,1.76-.07,3.48,3.48,0,0,1,1.61.94c.17.15.39.37.66.64l.64.66a3.57,3.57,0,0,1,.94,1.6,3.09,3.09,0,0,1,0,1.73,4,4,0,0,1-1,1.56l-1.91,1.91a.58.58,0,0,1-.42.18h0a.56.56,0,0,1-.42-.18Zm5.72,3.37,1.12-1.12a1.83,1.83,0,0,0,.67-1.37,2.09,2.09,0,0,0-.64-1.3l-.58-.6-.61-.59a2,2,0,0,0-1.3-.61,1.91,1.91,0,0,0-1.41.69l-1.07,1.07Zm5.63-4.2a.56.56,0,0,0,.42.18.58.58,0,0,0,.43-.18l.33-.33a.59.59,0,0,0,.17-.42.61.61,0,0,0-.17-.43l-3.33-3.33,5.69,1.15a1.46,1.46,0,0,0,.4,0,.66.66,0,0,0,.43-.2l.29-.29a.6.6,0,0,0,0-.84L31,26.23a.61.61,0,0,0-.85,0l-.33.33a.58.58,0,0,0-.18.42.58.58,0,0,0,.18.43l3.33,3.33-5.69-1.15a1.45,1.45,0,0,0-.4,0,.59.59,0,0,0-.43.19l-.29.29a.6.6,0,0,0,0,.84Zm1.66-10.8a3.14,3.14,0,0,1,0-1.72A4,4,0,0,1,35.8,21h0a3.14,3.14,0,0,1,1.72,0A3.93,3.93,0,0,1,39,22l.74.71.72.75a4,4,0,0,1,.89,1.52,2.93,2.93,0,0,1,0,1.71,3.49,3.49,0,0,1-1,1.62,3.6,3.6,0,0,1-1.62,1,3.21,3.21,0,0,1-.81.1,2.82,2.82,0,0,1-.9-.14,4,4,0,0,1-1.52-.89l-.74-.72c-.33-.33-.57-.57-.72-.74A3.93,3.93,0,0,1,33.23,25.34Zm2.14.39c.15.17.38.39.67.69l.68.66a2,2,0,0,0,1.36.63,1.73,1.73,0,0,0,1.23-.58,1.77,1.77,0,0,0,.58-1.23,2,2,0,0,0-.63-1.36l-.66-.69-.69-.66a2,2,0,0,0-1.32-.63h0a2,2,0,0,0-1.82,1.82h0A2,2,0,0,0,35.37,25.73Zm3-6.94a.58.58,0,0,1-.18-.43.56.56,0,0,1,.18-.42l2-2a3.51,3.51,0,0,1,2-1.07,2.38,2.38,0,0,1,2.06.79,2.55,2.55,0,0,1,.8,1.53,2.63,2.63,0,0,1-.17,1.26l3,.83a.55.55,0,0,1,.25.14.52.52,0,0,1,.15.38.5.5,0,0,1-.15.38l-.35.35a.83.83,0,0,1-.85.21l-3.1-.86L43,21l1.88,1.88a.6.6,0,0,1,0,.84l-.34.34a.6.6,0,0,1-.84,0Zm3.42,1.06L43,18.68a1.76,1.76,0,0,0,.59-1,1,1,0,0,0-.35-.82.88.88,0,0,0-.79-.33,1.9,1.9,0,0,0-1,.61L40.3,18.32Zm7.62-1.59a.61.61,0,0,0,.43.17.59.59,0,0,0,.42-.17l.33-.34a.58.58,0,0,0,0-.84l-3-3,2.59.83a1.3,1.3,0,0,0,.46.06.63.63,0,0,0,.43-.21l.31-.31a.73.73,0,0,0,.21-.43,1.06,1.06,0,0,0-.07-.45l-.82-2.6,3,3a.62.62,0,0,0,.85,0l.33-.34a.56.56,0,0,0,.18-.42.59.59,0,0,0-.17-.42L49.67,7.53a.61.61,0,0,0-.85,0l-.31.31a.84.84,0,0,0-.17.91L49.71,13l-4.29-1.36a.84.84,0,0,0-.92.16l-.3.31a.58.58,0,0,0-.18.43.59.59,0,0,0,.17.42Zm4.33-9.32a.59.59,0,0,0,.42.17h0a.59.59,0,0,0,.42-.17L57,6.54a.58.58,0,0,0,.18-.43A.56.56,0,0,0,57,5.69l-.26-.26a.6.6,0,0,0-.84,0l-2.4,2.4a.56.56,0,0,0-.18.42.58.58,0,0,0,.18.43ZM27.15,49.59a.61.61,0,0,0-.85,0l-.34.33a.61.61,0,0,0-.17.42.61.61,0,0,0,.17.43l2,2-2.46,2.46-2-2a.61.61,0,0,0-.85,0l-.33.33a.58.58,0,0,0-.18.42.58.58,0,0,0,.18.43l5.25,5.26a.63.63,0,0,0,.42.17h0a.57.57,0,0,0,.41-.17l.33-.34a.58.58,0,0,0,0-.84l-2.09-2.1,2.46-2.46L31.22,56a.63.63,0,0,0,.85,0l.33-.34a.58.58,0,0,0,0-.84Zm10.58-.65a.61.61,0,0,0-.85,0l-2.53,2.53L33,50.09l2.29-2.29a.6.6,0,0,0,0-.84l-.29-.3a.62.62,0,0,0-.85,0L31.83,49l-1.31-1.31L33,45.18a.61.61,0,0,0,.17-.43.59.59,0,0,0-.17-.42L32.7,44a.61.61,0,0,0-.85,0l-3.22,3.22a.56.56,0,0,0-.18.42.58.58,0,0,0,.18.43l5.25,5.26a.63.63,0,0,0,.43.17.56.56,0,0,0,.42-.18L38,50.08a.61.61,0,0,0,.17-.43.59.59,0,0,0-.17-.42Zm5.33-5.34a.63.63,0,0,0-.85,0l-2.55,2.56-4.55-4.54a.6.6,0,0,0-.84,0l-.34.33a.61.61,0,0,0-.17.43.61.61,0,0,0,.17.42l5.26,5.26a.61.61,0,0,0,.43.17.59.59,0,0,0,.42-.17l3.31-3.32a.58.58,0,0,0,0-.84ZM46,36a2.52,2.52,0,0,1-.13,1.46A3.89,3.89,0,0,1,45,38.7L43.68,40l1.79,1.79a.61.61,0,0,1,.17.42.61.61,0,0,1-.17.43l-.33.33a.61.61,0,0,1-.43.17.59.59,0,0,1-.42-.17L39,37.7a.6.6,0,0,1,0-.84l2-2.06a3.42,3.42,0,0,1,2-1,2.45,2.45,0,0,1,2.08.81A2.69,2.69,0,0,1,46,36Zm-2-.2c-.37-.37-.91-.67-1.82.23l-1.25,1.26,1.61,1.61,1.25-1.25a1.82,1.82,0,0,0,.58-1A1.07,1.07,0,0,0,44,35.75Zm9.83-2.92a.63.63,0,0,0-.85,0l-2.53,2.54L49.08,34l2.28-2.29a.58.58,0,0,0,0-.84l-.29-.3a.63.63,0,0,0-.85,0l-2.28,2.29-1.31-1.31,2.46-2.47a.58.58,0,0,0,0-.84l-.29-.3a.63.63,0,0,0-.85,0l-3.22,3.23a.58.58,0,0,0,0,.84L50,37.26a.58.58,0,0,0,.84,0L54.12,34a.58.58,0,0,0,0-.84Zm6.3-5.09a.54.54,0,0,1-.15.38l-.35.35a.83.83,0,0,1-.86.2l-3.09-.85L54.6,28.9l1.88,1.87a.61.61,0,0,1,.17.43.59.59,0,0,1-.17.42l-.34.33a.56.56,0,0,1-.42.18.63.63,0,0,1-.43-.17L50,26.7a.58.58,0,0,1-.18-.43.56.56,0,0,1,.18-.42l2-2a3.51,3.51,0,0,1,2-1.07h0a2.39,2.39,0,0,1,2.06.79,2.55,2.55,0,0,1,.8,1.53,2.63,2.63,0,0,1-.17,1.26l3,.83a.55.55,0,0,1,.25.14A.52.52,0,0,1,60.13,27.74Zm-5.25-3a.92.92,0,0,0-.79-.34,2,2,0,0,0-1,.62l-1.18,1.17,1.53,1.53,1.18-1.17C55.54,25.68,55.24,25.15,54.88,24.78Z"/></svg>